<svg viewBox="0 0 32 32" xmlns="http://www.w3.org/2000/svg">
  <defs>
    <linearGradient id="shieldGradient32" x1="0%" y1="0%" x2="100%" y2="100%">
      <stop offset="0%" style="stop-color:#4f46e5;stop-opacity:1" />
      <stop offset="50%" style="stop-color:#7c3aed;stop-opacity:1" />
      <stop offset="100%" style="stop-color:#1e40af;stop-opacity:1" />
    </linearGradient>
  </defs>
  
  <!-- Main shield shape -->
  <path d="M16 3 C11 3, 6 6, 6 11 L6 18 C6 23, 11 28, 16 29 C21 28, 26 23, 26 18 L26 11 C26 6, 21 3, 16 3 Z" 
        fill="url(#shieldGradient32)" 
        stroke="#1e293b" 
        stroke-width="0.5"/>
  
  <!-- Lock symbol -->
  <circle cx="16" cy="15" r="4" fill="none" stroke="#ffffff" stroke-width="1" opacity="0.8"/>
  <rect x="14" y="17" width="4" height="3" rx="0.5" fill="#ffffff" opacity="0.9"/>
  <path d="M15 17 L15 15 C15 14, 15.5 13, 16 13 C16.5 13, 17 14, 17 15 L17 17" 
        fill="none" 
        stroke="#ffffff" 
        stroke-width="1" 
        opacity="0.9"/>
</svg>